<?xml version="1.0" encoding="UTF-8" ?>
<svg xmlns="http://www.w3.org/2000/svg" xmlns:xlink="http://www.w3.org/1999/xlink" width="426pt" height="297pt" viewBox="0.00 0.00 425.66 297.39">
<g id="graph0" class="graph" transform="scale(1 1) rotate(0) translate(4 293.3869)">
<title>finite_state_machine</title>
<polygon fill="#ffffff" stroke="transparent" points="-4,4 -4,-293.3869 421.6586,-293.3869 421.6586,4 -4,4"/>
<!-- 1 -->
<g id="node1" class="node">
<title>1</title>
<ellipse fill="#ffa500" stroke="#000000" cx="123.9651" cy="-267.3869" rx="18" ry="18"/>
<ellipse fill="none" stroke="#000000" cx="123.9651" cy="-267.3869" rx="22" ry="22"/>
<text text-anchor="middle" x="123.9651" y="-263.1869" font-family="Times,serif" font-size="14.00" fill="#000000">1</text>
</g>
<!-- 2 -->
<g id="node2" class="node">
<title>2</title>
<ellipse fill="#ffa500" stroke="#000000" cx="173.9651" cy="-187.3869" rx="18" ry="18"/>
<ellipse fill="none" stroke="#000000" cx="173.9651" cy="-187.3869" rx="22" ry="22"/>
<text text-anchor="middle" x="173.9651" y="-183.1869" font-family="Times,serif" font-size="14.00" fill="#000000">2</text>
</g>
<!-- 1&#45;&gt;2 -->
<g id="edge1" class="edge">
<title>1-&gt;2</title>
<path fill="none" stroke="#000000" d="M135.8144,-248.428C142.1036,-238.3654 149.9449,-225.8192 156.8802,-214.7228"/>
<polygon fill="#000000" stroke="#000000" points="159.8688,-216.5447 162.2009,-206.2097 153.9328,-212.8347 159.8688,-216.5447"/>
</g>
<!-- 4 -->
<g id="node5" class="node">
<title>4</title>
<ellipse fill="#2e8b57" stroke="#000000" cx="260.9651" cy="-104.6935" rx="18" ry="18"/>
<ellipse fill="none" stroke="#000000" cx="260.9651" cy="-104.6935" rx="22" ry="22"/>
<text text-anchor="middle" x="260.9651" y="-100.4935" font-family="Times,serif" font-size="14.00" fill="#ffffff">4</text>
</g>
<!-- 1&#45;&gt;4 -->
<g id="edge2" class="edge">
<title>1-&gt;4</title>
<path fill="none" stroke="#000000" d="M143.5835,-256.8359C161.3183,-246.5489 187.2824,-229.5369 204.9651,-209.3869 224.3883,-187.2536 239.5727,-157.2201 249.2004,-134.9963"/>
<polygon fill="#000000" stroke="#000000" points="252.4619,-136.2694 253.1053,-125.6941 246.0075,-133.5599 252.4619,-136.2694"/>
</g>
<!-- 6 -->
<g id="node7" class="node">
<title>6</title>
<ellipse fill="#2e8b57" stroke="#000000" cx="36.9651" cy="-104.6935" rx="18" ry="18"/>
<ellipse fill="none" stroke="#000000" cx="36.9651" cy="-104.6935" rx="22" ry="22"/>
<text text-anchor="middle" x="36.9651" y="-100.4935" font-family="Times,serif" font-size="14.00" fill="#ffffff">6</text>
</g>
<!-- 1&#45;&gt;6 -->
<g id="edge3" class="edge">
<title>1-&gt;6</title>
<path fill="none" stroke="#000000" d="M106.7574,-253.5683C94.3389,-242.7494 78.0468,-226.6781 67.9651,-209.3869 54.8366,-186.8702 46.8679,-158.3387 42.3037,-136.7494"/>
<polygon fill="#000000" stroke="#000000" points="45.7028,-135.8962 40.3288,-126.7655 38.8359,-137.2546 45.7028,-135.8962"/>
</g>
<!-- 8 -->
<g id="node9" class="node">
<title>8</title>
<ellipse fill="#2e8b57" stroke="#000000" cx="86.9651" cy="-22" rx="18" ry="18"/>
<ellipse fill="none" stroke="#000000" cx="86.9651" cy="-22" rx="22" ry="22"/>
<text text-anchor="middle" x="86.9651" y="-17.8" font-family="Times,serif" font-size="14.00" fill="#ffffff">8</text>
</g>
<!-- 1&#45;&gt;8 -->
<g id="edge4" class="edge">
<title>1-&gt;8</title>
<path fill="none" stroke="#000000" d="M104.6345,-256.5873C87.4935,-246.2478 62.6577,-229.3047 45.9651,-209.3869 20.4312,-178.9195 15.0983,-168.0758 5.9651,-129.3869 .9221,-108.0243 -4.0673,-99.5229 5.9651,-80 16.6688,-59.1709 38.7087,-44.1502 57.0991,-34.6204"/>
<polygon fill="#000000" stroke="#000000" points="58.8472,-37.662 66.3041,-30.1357 55.7813,-31.3691 58.8472,-37.662"/>
</g>
<!-- 2&#45;&gt;4 -->
<g id="edge5" class="edge">
<title>2-&gt;4</title>
<path fill="none" stroke="#000000" d="M189.9223,-172.2197C203.2062,-159.5933 222.3116,-141.4336 237.3645,-127.1258"/>
<polygon fill="#000000" stroke="#000000" points="239.9776,-129.4709 244.8145,-120.0446 235.155,-124.3971 239.9776,-129.4709"/>
</g>
<!-- 5 -->
<g id="node6" class="node">
<title>5</title>
<ellipse fill="#2e8b57" stroke="#000000" cx="136.9651" cy="-104.6935" rx="18" ry="18"/>
<ellipse fill="none" stroke="#000000" cx="136.9651" cy="-104.6935" rx="22" ry="22"/>
<text text-anchor="middle" x="136.9651" y="-100.4935" font-family="Times,serif" font-size="14.00" fill="#ffffff">5</text>
</g>
<!-- 2&#45;&gt;5 -->
<g id="edge6" class="edge">
<title>2-&gt;5</title>
<path fill="none" stroke="#000000" d="M164.8191,-166.9458C160.3832,-157.032 154.9738,-144.9421 150.1061,-134.063"/>
<polygon fill="#000000" stroke="#000000" points="153.285,-132.5979 146.006,-124.8994 146.8954,-135.4568 153.285,-132.5979"/>
</g>
<!-- 7 -->
<g id="node8" class="node">
<title>7</title>
<ellipse fill="#2e8b57" stroke="#000000" cx="198.9651" cy="-104.6935" rx="18" ry="18"/>
<ellipse fill="none" stroke="#000000" cx="198.9651" cy="-104.6935" rx="22" ry="22"/>
<text text-anchor="middle" x="198.9651" y="-100.4935" font-family="Times,serif" font-size="14.00" fill="#ffffff">7</text>
</g>
<!-- 2&#45;&gt;7 -->
<g id="edge7" class="edge">
<title>2-&gt;7</title>
<path fill="none" stroke="#000000" d="M180.4032,-166.0913C183.2027,-156.8314 186.5374,-145.8012 189.6028,-135.6614"/>
<polygon fill="#000000" stroke="#000000" points="193.0051,-136.5019 192.5488,-125.9169 186.3046,-134.4762 193.0051,-136.5019"/>
</g>
<!-- 3 -->
<g id="node3" class="node">
<title>3</title>
<ellipse fill="#ffa500" stroke="#000000" cx="98.9651" cy="-187.3869" rx="18" ry="18"/>
<ellipse fill="none" stroke="#000000" cx="98.9651" cy="-187.3869" rx="22" ry="22"/>
<text text-anchor="middle" x="98.9651" y="-183.1869" font-family="Times,serif" font-size="14.00" fill="#000000">3</text>
</g>
<!-- 3&#45;&gt;5 -->
<g id="edge8" class="edge">
<title>3-&gt;5</title>
<path fill="none" stroke="#000000" d="M108.1639,-167.3691C112.7508,-157.3872 118.3873,-145.1215 123.4541,-134.0954"/>
<polygon fill="#000000" stroke="#000000" points="126.7241,-135.3615 127.7194,-124.8135 120.3635,-132.4386 126.7241,-135.3615"/>
</g>
<!-- 3&#45;&gt;6 -->
<g id="edge9" class="edge">
<title>3-&gt;6</title>
<path fill="none" stroke="#000000" d="M85.512,-169.4437C77.0046,-158.0967 65.8682,-143.2434 56.4078,-130.6254"/>
<polygon fill="#000000" stroke="#000000" points="58.9781,-128.219 50.1789,-122.3176 53.3774,-132.4181 58.9781,-128.219"/>
</g>
<!-- 3&#45;&gt;7 -->
<g id="edge10" class="edge">
<title>3-&gt;7</title>
<path fill="none" stroke="#000000" d="M115.9288,-173.3591C131.8753,-160.1724 155.9366,-140.2753 174.0597,-125.2886"/>
<polygon fill="#000000" stroke="#000000" points="176.4423,-127.8601 181.9183,-118.7901 171.9814,-122.4656 176.4423,-127.8601"/>
</g>
<!-- 3&#45;&gt;8 -->
<g id="edge11" class="edge">
<title>3-&gt;8</title>
<path fill="none" stroke="#000000" d="M97.3716,-165.4248C95.3006,-136.8814 91.6685,-86.8231 89.2899,-54.0404"/>
<polygon fill="#000000" stroke="#000000" points="92.7798,-53.7734 88.5652,-44.0529 85.7982,-54.28 92.7798,-53.7734"/>
</g>
<!-- 9 -->
<g id="node4" class="node">
<title>9</title>
<ellipse fill="#ffa500" stroke="#000000" cx="325.9651" cy="-187.3869" rx="18" ry="18"/>
<ellipse fill="none" stroke="#000000" cx="325.9651" cy="-187.3869" rx="22" ry="22"/>
<text text-anchor="middle" x="325.9651" y="-183.1869" font-family="Times,serif" font-size="14.00" fill="#000000">9</text>
</g>
<!-- 9&#45;&gt;7 -->
<g id="edge13" class="edge">
<title>9-&gt;7</title>
<path fill="none" stroke="#000000" d="M306.378,-176.5441C286.6436,-165.392 255.5364,-147.1854 229.9651,-129.3869 228.0838,-128.0775 226.1672,-126.6907 224.2564,-125.2688"/>
<polygon fill="#000000" stroke="#000000" points="226.1009,-122.2717 216.0428,-118.9421 221.8293,-127.8173 226.1009,-122.2717"/>
</g>
<!-- 10 -->
<g id="node10" class="node">
<title>10</title>
<ellipse fill="#2e8b50" fill-opacity="0.376471" stroke="#000000" cx="325.9651" cy="-104.6935" rx="20.8568" ry="20.8568"/>
<ellipse fill="none" stroke="#000000" cx="325.9651" cy="-104.6935" rx="24.8884" ry="24.8884"/>
<text text-anchor="middle" x="325.9651" y="-100.4935" font-family="Times,serif" font-size="14.00" fill="#000000">10</text>
</g>
<!-- 9&#45;&gt;10 -->
<g id="edge14" class="edge">
<title>9-&gt;10</title>
<path fill="none" stroke="#000000" d="M325.9651,-165.2266C325.9651,-157.4038 325.9651,-148.4036 325.9651,-139.7759"/>
<polygon fill="#000000" stroke="#000000" points="329.4652,-139.541 325.9651,-129.541 322.4652,-139.541 329.4652,-139.541"/>
</g>
<!-- 11 -->
<g id="node11" class="node">
<title>11</title>
<ellipse fill="#2e8b50" fill-opacity="0.376471" stroke="#000000" cx="392.9651" cy="-104.6935" rx="20.8568" ry="20.8568"/>
<ellipse fill="none" stroke="#000000" cx="392.9651" cy="-104.6935" rx="24.8884" ry="24.8884"/>
<text text-anchor="middle" x="392.9651" y="-100.4935" font-family="Times,serif" font-size="14.00" fill="#000000">11</text>
</g>
<!-- 9&#45;&gt;11 -->
<g id="edge15" class="edge">
<title>9-&gt;11</title>
<path fill="none" stroke="#000000" d="M339.8476,-170.2528C348.7771,-159.2316 360.578,-144.6666 370.7884,-132.0647"/>
<polygon fill="#000000" stroke="#000000" points="373.6463,-134.097 377.2222,-124.1238 368.2075,-129.6903 373.6463,-134.097"/>
</g>
<!-- 7&#45;&gt;8 -->
<g id="edge12" class="edge">
<title>7-&gt;8</title>
<path fill="none" stroke="#000000" d="M181.7085,-90.6914C177.2653,-87.1571 172.4669,-83.4012 167.9651,-80 150.0337,-66.4524 129.4375,-51.7151 113.5011,-40.4861"/>
<polygon fill="#000000" stroke="#000000" points="115.3688,-37.5209 105.1736,-34.6386 111.3461,-43.2496 115.3688,-37.5209"/>
</g>
<!-- 12 -->
<g id="node12" class="node">
<title>12</title>
<ellipse fill="#c0c0c0" stroke="#000000" cx="325.9651" cy="-22" rx="20.8887" ry="20.8887"/>
<text text-anchor="middle" x="325.9651" y="-17.8" font-family="Times,serif" font-size="14.00" fill="#000000">12</text>
</g>
<!-- 10&#45;&gt;12 -->
<g id="edge16" class="edge">
<title>10-&gt;12</title>
<path fill="none" stroke="#000000" d="M325.9651,-79.8827C325.9651,-71.4026 325.9651,-61.8115 325.9651,-52.9107"/>
<polygon fill="#000000" stroke="#000000" points="329.4652,-52.887 325.9651,-42.8871 322.4652,-52.8871 329.4652,-52.887"/>
</g>
</g>
</svg>